<svg xmlns="http://www.w3.org/2000/svg" viewBox="0 0 520 400" fill="none" aria-hidden="true">
  <defs>
    <linearGradient id="tpl-bg" x1="0.5" y1="0" x2="0.5" y2="1">
      <stop offset="0%" stop-color="#E8F4FD"/>
      <stop offset="100%" stop-color="#E3F2FD"/>
    </linearGradient>
    <filter id="tpl-shadow" x="-10%" y="-10%" width="120%" height="125%">
      <feDropShadow dx="0" dy="5" stdDeviation="9" flood-color="#1976D2" flood-opacity="0.13"/>
    </filter>
  </defs>
  <rect width="520" height="400" rx="20" fill="url(#tpl-bg)"/>
  <rect x="48" y="48" width="200" height="12" rx="6" fill="#1976D2" opacity="0.1"/>
  <rect x="48" y="68" width="120" height="8" rx="4" fill="#1976D2" opacity="0.25"/>
  <!-- template 1 - single column -->
  <g filter="url(#tpl-shadow)" transform="rotate(-3 130 200)">
    <rect x="56" y="96" width="128" height="168" rx="10" fill="#fff" stroke="#1976D2" stroke-width="2"/>
    <rect x="56" y="96" width="128" height="20" rx="10" fill="#1976D2"/>
    <rect x="56" y="110" width="128" height="6" fill="#1976D2"/>
    <circle cx="88" cy="140" r="14" fill="#E3F2FD"/>
    <rect x="72" y="164" width="96" height="5" rx="2.5" fill="#90CAF9"/>
    <rect x="72" y="176" width="80" height="4" rx="2" fill="#BBDEFB"/>
    <rect x="72" y="188" width="88" height="4" rx="2" fill="#BBDEFB"/>
    <rect x="72" y="204" width="56" height="5" rx="2.5" fill="#1976D2" opacity="0.2"/>
    <rect x="72" y="218" width="96" height="4" rx="2" fill="#E3F2FD"/>
    <rect x="72" y="230" width="72" height="4" rx="2" fill="#E3F2FD"/>
  </g>
  <!-- template 2 - two column -->
  <g filter="url(#tpl-shadow)" transform="rotate(2 280 120)">
    <rect x="232" y="72" width="128" height="168" rx="10" fill="#fff" stroke="#1565C0" stroke-width="2"/>
    <rect x="232" y="72" width="128" height="16" rx="10" fill="#42A5F5"/>
    <rect x="232" y="84" width="128" height="4" fill="#42A5F5"/>
    <rect x="240" y="100" width="48" height="80" rx="4" fill="#E3F2FD"/>
    <rect x="296" y="100" width="56" height="6" rx="3" fill="#90CAF9"/>
    <rect x="296" y="114" width="48" height="4" rx="2" fill="#BBDEFB"/>
    <rect x="296" y="126" width="52" height="4" rx="2" fill="#BBDEFB"/>
    <rect x="240" y="188" width="48" height="5" rx="2.5" fill="#42A5F5" opacity="0.35"/>
    <rect x="296" y="188" width="56" height="4" rx="2" fill="#E3F2FD"/>
  </g>
  <!-- template 3 - accent sidebar -->
  <g filter="url(#tpl-shadow)" transform="rotate(-2 140 300)">
    <rect x="72" y="224" width="128" height="168" rx="10" fill="#fff" stroke="#2E7D32" stroke-width="2"/>
    <rect x="72" y="224" width="28" height="168" rx="10" fill="#66BB6A"/>
    <rect x="88" y="224" width="12" height="168" fill="#66BB6A"/>
    <rect x="108" y="244" width="80" height="6" rx="3" fill="#2E7D32" opacity="0.3"/>
    <rect x="108" y="260" width="72" height="4" rx="2" fill="#A5D6A7"/>
    <rect x="108" y="272" width="80" height="4" rx="2" fill="#C8E6C9"/>
    <rect x="108" y="288" width="64" height="5" rx="2.5" fill="#66BB6A" opacity="0.4"/>
    <rect x="108" y="304" width="76" height="4" rx="2" fill="#E8F5E9"/>
    <rect x="108" y="316" width="56" height="4" rx="2" fill="#E8F5E9"/>
  </g>
  <!-- template 4 - minimal -->
  <g filter="url(#tpl-shadow)" transform="rotate(4 360 280)">
    <rect x="296" y="216" width="128" height="168" rx="10" fill="#fff" stroke="#5C6BC0" stroke-width="2"/>
    <rect x="312" y="236" width="96" height="8" rx="4" fill="#5C6BC0" opacity="0.35"/>
    <rect x="312" y="256" width="80" height="4" rx="2" fill="#9FA8DA"/>
    <rect x="312" y="268" width="96" height="4" rx="2" fill="#C5CAE9"/>
    <rect x="312" y="280" width="72" height="4" rx="2" fill="#E8EAF6"/>
    <rect x="312" y="300" width="56" height="5" rx="2.5" fill="#5C6BC0" opacity="0.25"/>
    <rect x="312" y="316" width="88" height="4" rx="2" fill="#E8EAF6"/>
    <rect x="312" y="328" width="64" height="4" rx="2" fill="#E8EAF6"/>
    <rect x="312" y="348" width="40" height="4" rx="2" fill="#C5CAE9"/>
  </g>
  <!-- selection ring -->
  <rect x="228" y="68" width="136" height="176" rx="12" fill="none" stroke="#1976D2" stroke-width="2.5" stroke-dasharray="6 4" opacity="0.6"/>
  <circle cx="360" cy="88" r="22" fill="#1976D2"/>
  <path d="M354 88l4 4 8-10" stroke="#fff" stroke-width="2.5" stroke-linecap="round" stroke-linejoin="round"/>
  <text x="48" y="372" font-family="system-ui,sans-serif" font-size="12" font-weight="600" fill="#1976D2" opacity="0.7">Swap templates  content stays intact</text>
</svg>
