<svg xmlns="http://www.w3.org/2000/svg" viewBox="0 0 480 360" fill="none" aria-hidden="true">
  <rect width="480" height="360" rx="16" fill="#E3F2FD"/>
  <path d="M72 248h336v24H72z" fill="#BBDEFB"/>
  <rect x="96" y="88" width="120" height="144" rx="8" fill="#fff" stroke="#1976D2" stroke-width="2"/>
  <rect x="112" y="108" width="88" height="8" rx="4" fill="#90CAF9"/>
  <rect x="112" y="128" width="72" height="6" rx="3" fill="#E3F2FD"/>
  <rect x="112" y="144" width="80" height="6" rx="3" fill="#E3F2FD"/>
  <rect x="112" y="160" width="64" height="6" rx="3" fill="#E3F2FD"/>
  <circle cx="156" cy="200" r="20" fill="#1976D2" opacity="0.15"/>
  <path d="M148 200h16M156 192v16" stroke="#1976D2" stroke-width="2" stroke-linecap="round"/>
  <rect x="264" y="72" width="144" height="96" rx="8" fill="#fff" stroke="#1976D2" stroke-width="2"/>
  <path d="M280 148h112M280 132h80M280 116h96M280 100h64" stroke="#90CAF9" stroke-width="6" stroke-linecap="round"/>
  <path d="M296 148c16-24 32-36 48-36s32 12 48 36" stroke="#1976D2" stroke-width="3" fill="none"/>
  <rect x="280" y="192" width="112" height="72" rx="8" fill="#1976D2" opacity="0.12"/>
  <rect x="296" y="208" width="80" height="8" rx="4" fill="#1976D2" opacity="0.35"/>
  <rect x="296" y="228" width="56" height="8" rx="4" fill="#1976D2" opacity="0.25"/>
  <rect x="296" y="248" width="64" height="8" rx="4" fill="#1976D2" opacity="0.2"/>
  <circle cx="368" cy="120" r="28" fill="#FFC107" opacity="0.9"/>
  <path d="M360 120l6 6 14-14" stroke="#fff" stroke-width="3" stroke-linecap="round" stroke-linejoin="round"/>
</svg>
