<svg xmlns="http://www.w3.org/2000/svg" viewBox="0 0 520 400" fill="none" aria-hidden="true">
  <defs>
    <filter id="tpl-ov-shadow" x="-20%" y="-20%" width="140%" height="140%">
      <feDropShadow dx="0" dy="3" stdDeviation="5" flood-color="#1976D2" flood-opacity="0.18"/>
    </filter>
  </defs>
  <!-- swap loop -->
  <circle cx="400" cy="72" r="36" fill="#1976D2" opacity="0.12"/>
  <path
    d="M384 72a16 16 0 0 1 28-8M408 56l4 8-10 2M408 88a16 16 0 0 1-28 8M384 88l-4-8 10-2"
    stroke="#1976D2"
    stroke-width="2.5"
    stroke-linecap="round"
    stroke-linejoin="round"
  />
  <!-- layout pills -->
  <g filter="url(#tpl-ov-shadow)">
    <rect x="32" y="48" width="118" height="32" rx="16" fill="#fff" stroke="#1976D2" stroke-width="1.5"/>
  </g>
  <rect x="44" y="58" width="12" height="12" rx="3" fill="#1976D2" opacity="0.2"/>
  <rect x="48" y="62" width="4" height="8" rx="1" fill="#1976D2"/>
  <text x="64" y="69" font-family="system-ui,sans-serif" font-size="11" font-weight="600" fill="#1976D2">Single column</text>
  <g filter="url(#tpl-ov-shadow)">
    <rect x="32" y="92" width="132" height="32" rx="16" fill="#fff" stroke="#42A5F5" stroke-width="1.5"/>
  </g>
  <rect x="44" y="102" width="20" height="12" rx="2" fill="#42A5F5" opacity="0.25"/>
  <rect x="68" y="102" width="10" height="12" rx="2" fill="#90CAF9"/>
  <text x="86" y="113" font-family="system-ui,sans-serif" font-size="11" font-weight="600" fill="#1565C0">Multi-column</text>
  <!-- ATS badge -->
  <g filter="url(#tpl-ov-shadow)">
    <rect x="360" y="320" width="136" height="36" rx="18" fill="#E8F5E9" stroke="#66BB6A" stroke-width="1.5"/>
  </g>
  <circle cx="378" cy="338" r="10" fill="#66BB6A"/>
  <path d="M374 338l3 3 6-7" stroke="#fff" stroke-width="2" stroke-linecap="round" stroke-linejoin="round"/>
  <text x="394" y="343" font-family="system-ui,sans-serif" font-size="11" font-weight="600" fill="#2E7D32">ATS-friendly headings</text>
  <!-- same content chip -->
  <g filter="url(#tpl-ov-shadow)">
    <rect x="168" y="348" width="184" height="36" rx="18" fill="#1976D2"/>
  </g>
  <text x="188" y="371" font-family="system-ui,sans-serif" font-size="12" font-weight="600" fill="#fff">Same content · new layout</text>
  <!-- template picker dots -->
  <circle cx="228" cy="32" r="5" fill="#1976D2"/>
  <circle cx="248" cy="32" r="5" fill="#90CAF9"/>
  <circle cx="268" cy="32" r="5" fill="#BBDEFB"/>
  <circle cx="288" cy="32" r="5" fill="#E3F2FD" stroke="#1976D2" stroke-width="1.5"/>
  <!-- corner accent -->
  <path d="M8 120 Q8 40 88 24" stroke="#90CAF9" stroke-width="2" stroke-linecap="round" opacity="0.5"/>
</svg>
